<svg xmlns="http://www.w3.org/2000/svg" xmlns:svg="http://www.w3.org/2000/svg" id="svg2" width="25" height="25" version="1.1" viewBox="0 0 25 25"><metadata id="metadata7"/><g id="layer1" transform="translate(0,-1027.3622)"><g style="font-style:normal;font-variant:normal;font-weight:700;font-stretch:normal;font-size:48px;line-height:125%;font-family:'DejaVu Sans';-inkscape-font-specification:'Sans Bold';text-align:start;letter-spacing:0;word-spacing:0;writing-mode:lr-tb;text-anchor:start;fill:#000;fill-opacity:1;stroke:none;stroke-width:1px;stroke-linecap:butt;stroke-linejoin:miter;stroke-opacity:1" id="text5290"><path style="font-size:10px;fill:#fff;fill-opacity:1" id="path5340" d="m 9.9560547,1042.3329 -2.9394531,0 -0.4638672,1.3281 -1.8896485,0 2.7001953,-7.29 2.241211,0 2.7001958,7.29 -1.889649,0 -0.4589843,-1.3281 z m -2.4707031,-1.3526 1.9970703,0 -0.9960938,-2.9003 -1.0009765,2.9003 z"/><path style="font-size:10px;fill:#fff;fill-opacity:1" id="path5342" d="m 13.188477,1036.0634 1.748046,0 0,7.5976 -1.748046,0 0,-7.5976 z"/><path style="font-size:10px;fill:#fff;fill-opacity:1" id="path5344" d="m 18.535156,1036.6395 0,1.5528 1.801758,0 0,1.25 -1.801758,0 0,2.3193 q 0,0.3809 0.151367,0.5176 0.151368,0.1318 0.600586,0.1318 l 0.898438,0 0,1.25 -1.499024,0 q -1.035156,0 -1.469726,-0.4297 -0.429688,-0.4345 -0.429688,-1.4697 l 0,-2.3193 -0.86914,0 0,-1.25 0.86914,0 0,-1.5528 1.748047,0 z"/></g></g></svg>