<svg xmlns="http://www.w3.org/2000/svg" xmlns:svg="http://www.w3.org/2000/svg" id="svg2" width="25" height="25" version="1.1" viewBox="0 0 25 25"><metadata id="metadata7"/><g id="layer1" transform="translate(0,-1027.3622)"><path style="opacity:1;fill:#fff;fill-opacity:1;stroke:none;stroke-width:1;stroke-linecap:round;stroke-linejoin:round;stroke-miterlimit:4;stroke-dasharray:none;stroke-dashoffset:0;stroke-opacity:1" id="rect4135" d="M 7 3 C 4.7839905 3 3 4.7839905 3 7 L 3 18 C 3 20.21601 4.7839905 22 7 22 L 18 22 C 20.21601 22 22 20.21601 22 18 L 22 7 C 22 4.7839905 20.21601 3 18 3 L 7 3 z M 7.6992188 6 A 1.6916875 1.6924297 0 0 1 8.9121094 6.5117188 L 12.5 10.101562 L 16.087891 6.5117188 A 1.6916875 1.6924297 0 0 1 17.251953 6 A 1.6916875 1.6924297 0 0 1 18.480469 8.90625 L 14.892578 12.496094 L 18.480469 16.085938 A 1.6916875 1.6924297 0 1 1 16.087891 18.478516 L 12.5 14.888672 L 8.9121094 18.478516 A 1.6916875 1.6924297 0 1 1 6.5214844 16.085938 L 10.109375 12.496094 L 6.5214844 8.90625 A 1.6916875 1.6924297 0 0 1 7.6992188 6 z" transform="translate(0,1027.3622)"/></g></svg>