<svg xmlns="http://www.w3.org/2000/svg" xmlns:svg="http://www.w3.org/2000/svg" id="svg2" width="25" height="25" version="1.1" viewBox="0 0 25 25"><metadata id="metadata7"/><g id="layer1" transform="translate(0,-1027.3622)"><g style="font-style:normal;font-variant:normal;font-weight:700;font-stretch:normal;font-size:48px;line-height:125%;font-family:'DejaVu Sans';-inkscape-font-specification:'Sans Bold';text-align:start;letter-spacing:0;word-spacing:0;writing-mode:lr-tb;text-anchor:start;fill:#000;fill-opacity:1;stroke:none;stroke-width:1px;stroke-linecap:butt;stroke-linejoin:miter;stroke-opacity:1" id="text5290"><path style="font-size:10px;fill:#fff;fill-opacity:1" id="path5314" d="m 3.9331055,1036.1464 5.0732422,0 0,1.4209 -3.1933594,0 0,1.3574 3.0029297,0 0,1.4209 -3.0029297,0 0,1.6699 3.3007812,0 0,1.4209 -5.180664,0 0,-7.29 z"/><path style="font-size:10px;fill:#fff;fill-opacity:1" id="path5316" d="m 14.963379,1038.1385 0,1.3282 q -0.561524,-0.2344 -1.083984,-0.3516 -0.522461,-0.1172 -0.986329,-0.1172 -0.498046,0 -0.742187,0.127 -0.239258,0.122 -0.239258,0.3808 0,0.21 0.180664,0.3223 0.185547,0.1123 0.65918,0.166 l 0.307617,0.044 q 1.342773,0.1709 1.806641,0.5615 0.463867,0.3906 0.463867,1.2256 0,0.874 -0.644531,1.3134 -0.644532,0.4395 -1.923829,0.4395 -0.541992,0 -1.123046,-0.088 -0.576172,-0.083 -1.186524,-0.2539 l 0,-1.3281 q 0.522461,0.2539 1.069336,0.3808 0.551758,0.127 1.118164,0.127 0.512695,0 0.771485,-0.1416 0.258789,-0.1416 0.258789,-0.4199 0,-0.2344 -0.180664,-0.3467 -0.175782,-0.1172 -0.708008,-0.1807 l -0.307617,-0.039 q -1.166993,-0.1465 -1.635743,-0.542 -0.46875,-0.3955 -0.46875,-1.2012 0,-0.8691 0.595703,-1.2891 0.595704,-0.4199 1.826172,-0.4199 0.483399,0 1.015625,0.073 0.532227,0.073 1.157227,0.2294 z"/><path style="font-size:10px;fill:#fff;fill-opacity:1" id="path5318" d="m 21.066895,1038.1385 0,1.4258 q -0.356446,-0.2441 -0.717774,-0.3613 -0.356445,-0.1172 -0.742187,-0.1172 -0.732422,0 -1.142579,0.4297 -0.405273,0.4248 -0.405273,1.1914 0,0.7666 0.405273,1.1963 0.410157,0.4248 1.142579,0.4248 0.410156,0 0.776367,-0.1221 0.371094,-0.122 0.683594,-0.3613 l 0,1.4307 q -0.410157,0.1513 -0.834961,0.2246 -0.419922,0.078 -0.844727,0.078 -1.479492,0 -2.314453,-0.7568 -0.834961,-0.7618 -0.834961,-2.1143 0,-1.3525 0.834961,-2.1094 0.834961,-0.7617 2.314453,-0.7617 0.429688,0 0.844727,0.078 0.419921,0.073 0.834961,0.2246 z"/></g></g></svg>