<svg xmlns="http://www.w3.org/2000/svg" xmlns:svg="http://www.w3.org/2000/svg" id="svg2" width="25" height="25" version="1.1" viewBox="0 0 25 25"><metadata id="metadata7"/><g id="layer1" transform="translate(0,-1027.3622)"><path style="opacity:1;fill:#fff;fill-opacity:1;stroke:none;stroke-width:1;stroke-linecap:round;stroke-linejoin:round;stroke-miterlimit:4;stroke-dasharray:none;stroke-dashoffset:0;stroke-opacity:1" id="path4136" d="M 12.5 3 A 9.5 9.4999914 0 0 0 3 12.5 A 9.5 9.4999914 0 0 0 12.5 22 A 9.5 9.4999914 0 0 0 22 12.5 A 9.5 9.4999914 0 0 0 12.5 3 z M 12.5 5 A 1.5 1.5000087 0 0 1 14 6.5 A 1.5 1.5000087 0 0 1 12.5 8 A 1.5 1.5000087 0 0 1 11 6.5 A 1.5 1.5000087 0 0 1 12.5 5 z M 10.521484 8.9785156 L 12.521484 8.9785156 A 1.50015 1.50015 0 0 1 14.021484 10.478516 L 14.021484 15.972656 A 1.50015 1.50015 0 0 1 14.498047 18.894531 C 14.498047 18.894531 13.74301 19.228309 12.789062 18.912109 C 12.312092 18.754109 11.776235 18.366625 11.458984 17.828125 C 11.141734 17.289525 11.021484 16.668469 11.021484 15.980469 L 11.021484 11.980469 L 10.521484 11.980469 A 1.50015 1.50015 0 1 1 10.521484 8.9804688 L 10.521484 8.9785156 z" transform="translate(0,1027.3622)"/></g></svg>