<svg xmlns="http://www.w3.org/2000/svg" xmlns:svg="http://www.w3.org/2000/svg" id="svg2" width="25" height="25" version="1.1" viewBox="0 0 25 25"><metadata id="metadata7"/><g id="layer1" transform="translate(0,-1027.3622)"><path style="color:#000;font-style:normal;font-variant:normal;font-weight:400;font-stretch:normal;font-size:medium;line-height:normal;font-family:sans-serif;text-indent:0;text-align:start;text-decoration:none;text-decoration-line:none;text-decoration-style:solid;text-decoration-color:#000;letter-spacing:normal;word-spacing:normal;text-transform:none;direction:ltr;block-progression:tb;writing-mode:lr-tb;baseline-shift:baseline;text-anchor:start;white-space:normal;clip-rule:nonzero;display:inline;overflow:visible;visibility:visible;opacity:1;isolation:auto;mix-blend-mode:normal;color-interpolation:sRGB;color-interpolation-filters:linearRGB;solid-color:#000;solid-opacity:1;fill:#fff;fill-opacity:1;fill-rule:nonzero;stroke:none;stroke-width:2;stroke-linecap:round;stroke-linejoin:round;stroke-miterlimit:4;stroke-dasharray:none;stroke-dashoffset:0;stroke-opacity:1;color-rendering:auto;image-rendering:auto;shape-rendering:auto;text-rendering:auto;enable-background:accumulate" id="path6140" d="M 9 6.8183594 C 6.3418164 8.1213032 4.5 10.849161 4.5 14 C 4.5 18.4065 8.0935666 22 12.5 22 C 16.906433 22 20.5 18.4065 20.5 14 C 20.5 10.849161 18.658184 8.1213032 16 6.8183594 L 16 9.125 C 17.514327 10.211757 18.5 11.984508 18.5 14 C 18.5 17.3256 15.825553 20 12.5 20 C 9.1744469 20 6.5 17.3256 6.5 14 C 6.5 11.984508 7.4856727 10.211757 9 9.125 L 9 6.8183594 z" transform="translate(0,1027.3622)"/><path style="fill:none;fill-rule:evenodd;stroke:#fff;stroke-width:3;stroke-linecap:round;stroke-linejoin:miter;stroke-miterlimit:4;stroke-dasharray:none;stroke-opacity:1" id="path6142" d="m 12.5,1031.8836 0,6.4786"/></g></svg>