<svg xmlns="http://www.w3.org/2000/svg" xmlns:svg="http://www.w3.org/2000/svg" id="svg2" width="25" height="25" version="1.1" viewBox="0 0 25 25"><metadata id="metadata7"/><g id="layer1" transform="translate(0,-1027.3622)"><path style="color:#000;font-style:normal;font-variant:normal;font-weight:400;font-stretch:normal;font-size:medium;line-height:normal;font-family:sans-serif;text-indent:0;text-align:start;text-decoration:none;text-decoration-line:none;text-decoration-style:solid;text-decoration-color:#000;letter-spacing:normal;word-spacing:normal;text-transform:none;direction:ltr;block-progression:tb;writing-mode:lr-tb;baseline-shift:baseline;text-anchor:start;white-space:normal;clip-rule:nonzero;display:inline;overflow:visible;visibility:visible;opacity:1;isolation:auto;mix-blend-mode:normal;color-interpolation:sRGB;color-interpolation-filters:linearRGB;solid-color:#000;solid-opacity:1;fill:#fff;fill-opacity:1;fill-rule:nonzero;stroke:none;stroke-width:2;stroke-linecap:round;stroke-linejoin:miter;stroke-miterlimit:4;stroke-dasharray:none;stroke-dashoffset:0;stroke-opacity:1;color-rendering:auto;image-rendering:auto;shape-rendering:auto;text-rendering:auto;enable-background:accumulate" id="rect5006" d="m 8,1031.3622 c -2.1987124,0 -4,1.8013 -4,4 l 0,8.9996 c 0,2.1987 1.8012876,4 4,4 l 9,0 c 2.198712,0 4,-1.8013 4,-4 l 0,-8.9996 c 0,-2.1987 -1.801288,-4 -4,-4 z m 0,2 9,0 c 1.125307,0 2,0.8747 2,2 l 0,7.0005 c 0,1.1253 -0.874693,2 -2,2 l -9,0 c -1.1253069,0 -2,-0.8747 -2,-2 l 0,-7.0005 c 0,-1.1253 0.8746931,-2 2,-2 z"/><g style="font-style:normal;font-variant:normal;font-weight:700;font-stretch:normal;font-size:10px;line-height:125%;font-family:'DejaVu Sans';-inkscape-font-specification:'Sans Bold';text-align:start;letter-spacing:0;word-spacing:0;writing-mode:lr-tb;text-anchor:start;fill:#fff;fill-opacity:1;stroke:none;stroke-width:1px;stroke-linecap:butt;stroke-linejoin:miter;stroke-opacity:1" id="text4167" transform="matrix(0.96021948,0,0,0.96021948,0.18921715,41.80659)"><path id="path4172" d="m 14.292969,1040.6791 -2.939453,0 -0.463868,1.3281 -1.889648,0 2.700195,-7.29 2.241211,0 2.700196,7.29 -1.889649,0 -0.458984,-1.3281 z m -2.470703,-1.3526 1.99707,0 -0.996094,-2.9004 -1.000976,2.9004 z"/></g></g></svg>