<svg xmlns="http://www.w3.org/2000/svg" xmlns:svg="http://www.w3.org/2000/svg" id="svg2" width="25" height="25" version="1.1" viewBox="0 0 25 25"><metadata id="metadata7"/><g id="layer1" transform="translate(0,-1027.3622)"><path style="color:#000;font-style:normal;font-variant:normal;font-weight:400;font-stretch:normal;font-size:medium;line-height:normal;font-family:sans-serif;text-indent:0;text-align:start;text-decoration:none;text-decoration-line:none;text-decoration-style:solid;text-decoration-color:#000;letter-spacing:normal;word-spacing:normal;text-transform:none;direction:ltr;block-progression:tb;writing-mode:lr-tb;baseline-shift:baseline;text-anchor:start;white-space:normal;clip-rule:nonzero;display:inline;overflow:visible;visibility:visible;opacity:1;isolation:auto;mix-blend-mode:normal;color-interpolation:sRGB;color-interpolation-filters:linearRGB;solid-color:#000;solid-opacity:1;fill:#fff;fill-opacity:1;fill-rule:evenodd;stroke:none;stroke-width:4;stroke-linecap:butt;stroke-linejoin:round;stroke-miterlimit:4;stroke-dasharray:none;stroke-dashoffset:0;stroke-opacity:1;color-rendering:auto;image-rendering:auto;shape-rendering:auto;text-rendering:auto;enable-background:accumulate" id="path4208" d="M 12.513672 3.0019531 C 11.751609 2.9919531 11.052563 3.4242687 10.710938 4.1054688 L 3.2109375 19.105469 C 2.5461937 20.435369 3.5132277 21.9999 5 22 L 20 22 C 21.486772 21.9999 22.453806 20.435369 21.789062 19.105469 L 14.289062 4.1054688 C 13.951849 3.4330688 13.265888 3.0066531 12.513672 3.0019531 z M 12.478516 6.9804688 A 1.50015 1.50015 0 0 1 14 8.5 L 14 14.5 A 1.50015 1.50015 0 1 1 11 14.5 L 11 8.5 A 1.50015 1.50015 0 0 1 12.478516 6.9804688 z M 12.5 17 A 1.5 1.5 0 0 1 14 18.5 A 1.5 1.5 0 0 1 12.5 20 A 1.5 1.5 0 0 1 11 18.5 A 1.5 1.5 0 0 1 12.5 17 z" transform="translate(0,1027.3622)"/></g></svg>