<svg xmlns="http://www.w3.org/2000/svg" xmlns:svg="http://www.w3.org/2000/svg" id="svg2" width="16" height="16" version="1.1" viewBox="0 0 16 16"><metadata id="metadata7"/><g id="layer1" transform="translate(0,-1036.3621)"><rect style="opacity:1;fill:#494949;fill-opacity:1;stroke:none;stroke-width:1;stroke-linecap:round;stroke-linejoin:round;stroke-miterlimit:4;stroke-dasharray:none;stroke-dashoffset:0;stroke-opacity:1" id="rect4167" width="16" height="16" x="0" y="1036.362" ry="2.667"/><path style="opacity:1;fill:#313131;fill-opacity:1;stroke:none;stroke-width:1;stroke-linecap:round;stroke-linejoin:round;stroke-miterlimit:4;stroke-dasharray:none;stroke-dashoffset:0;stroke-opacity:1" id="rect4173" d="M 2.6666667,1036.3621 C 1.1893373,1036.3621 0,1037.5515 0,1039.0288 l 0,10.6666 c 0,1.4774 1.1893373,2.6667 2.6666667,2.6667 l 4,0 C 11.837333,1052.3621 16,1046.7128 16,1039.6955 l 0,-0.6667 c 0,-1.4773 -1.189337,-2.6667 -2.666667,-2.6667 l -10.6666663,0 z"/><g id="g4381"><g style="fill:#000;fill-opacity:1" id="g4365" transform="translate(0.25,0.25)"><g style="fill:#000;fill-opacity:1" id="g4367"><path id="path4369" d="m 4.3289754,1039.3621 c 0.1846149,0 0.3419956,0.071 0.4716623,0.2121 C 4.933546,1039.7121 5,1039.8793 5,1040.0759 l 0,3.2862 -1,0 0,-2.964 c 0,-0.024 -0.011592,-0.036 -0.034038,-0.036 l -1.931924,0 C 2.011349,1040.3621 2,1040.3741 2,1040.3981 l 0,2.964 -1,0 0,-4 z" style="font-style:normal;font-variant:normal;font-weight:700;font-stretch:normal;font-size:medium;line-height:125%;font-family:Orbitron;-inkscape-font-specification:'Orbitron Bold';text-align:start;letter-spacing:0;word-spacing:0;writing-mode:lr-tb;text-anchor:start;fill:#000;fill-opacity:1;stroke:none;stroke-width:1px;stroke-linecap:butt;stroke-linejoin:miter;stroke-opacity:1"/><path id="path4371" d="m 6.6710244,1039.3621 2.6579513,0 c 0.184775,0 0.3419957,0.071 0.471662,0.2121 C 9.933546,1039.7121 10,1039.8793 10,1040.0759 l 0,2.5724 c 0,0.1966 -0.066454,0.3655 -0.1993623,0.5069 -0.1296663,0.1379 -0.286887,0.2069 -0.471662,0.2069 l -2.6579513,0 c -0.184775,0 -0.3436164,-0.069 -0.4765247,-0.2069 C 6.0648334,1043.0138 6,1042.8449 6,1042.6483 l 0,-2.5724 c 0,-0.1966 0.064833,-0.3638 0.1944997,-0.5017 0.1329083,-0.1414 0.2917497,-0.2121 0.4765247,-0.2121 z m 2.2949386,1 -1.931926,0 C 7.011344,1040.3621 7,1040.3741 7,1040.3981 l 0,1.928 c 0,0.024 0.011347,0.036 0.034037,0.036 l 1.931926,0 c 0.02269,0 0.034037,-0.012 0.034037,-0.036 l 0,-1.928 c 0,-0.024 -0.011347,-0.036 -0.034037,-0.036 z" style="font-style:normal;font-variant:normal;font-weight:700;font-stretch:normal;font-size:medium;line-height:125%;font-family:Orbitron;-inkscape-font-specification:'Orbitron Bold';text-align:start;letter-spacing:0;word-spacing:0;writing-mode:lr-tb;text-anchor:start;fill:#000;fill-opacity:1;stroke:none;stroke-width:1px;stroke-linecap:butt;stroke-linejoin:miter;stroke-opacity:1"/></g><g style="fill:#000;fill-opacity:1" id="g4373"><path id="path4375" d="m 3,1047.1121 1,-2.75 1,0 -1.5,4 -1,0 -1.5,-4 1,0 z" style="font-style:normal;font-variant:normal;font-weight:700;font-stretch:normal;font-size:medium;line-height:125%;font-family:Orbitron;-inkscape-font-specification:'Orbitron Bold';text-align:start;letter-spacing:0;word-spacing:0;writing-mode:lr-tb;text-anchor:start;fill:#000;fill-opacity:1;stroke:none;stroke-width:1px;stroke-linecap:butt;stroke-linejoin:miter;stroke-opacity:1"/><path id="path4377" d="m 9,1046.8621 0,-2.5 1,0 0,4 -1,0 -2,-2.5 0,2.5 -1,0 0,-4 1,0 z" style="font-style:normal;font-variant:normal;font-weight:700;font-stretch:normal;font-size:medium;line-height:125%;font-family:Orbitron;-inkscape-font-specification:'Orbitron Bold';text-align:start;letter-spacing:0;word-spacing:0;writing-mode:lr-tb;text-anchor:start;fill:#000;fill-opacity:1;stroke:none;stroke-width:1px;stroke-linecap:butt;stroke-linejoin:miter;stroke-opacity:1"/><path id="path4379" d="m 15,1045.3621 -2.96596,0 c -0.02269,0 -0.03404,0.012 -0.03404,0.036 l 0,1.928 c 0,0.024 0.01135,0.036 0.03404,0.036 l 2.96596,0 0,1 -3.324113,0 c -0.188017,0 -0.348479,-0.068 -0.481388,-0.2037 C 11.064833,1048.0192 11,1047.8511 11,1047.6542 l 0,-2.5842 c 0,-0.1969 0.06483,-0.3633 0.194499,-0.4991 0.132909,-0.1392 0.293371,-0.2088 0.481388,-0.2088 l 3.324113,0 z" style="font-style:normal;font-variant:normal;font-weight:700;font-stretch:normal;font-size:medium;line-height:125%;font-family:Orbitron;-inkscape-font-specification:'Orbitron Bold';text-align:start;letter-spacing:0;word-spacing:0;writing-mode:lr-tb;text-anchor:start;fill:#000;fill-opacity:1;stroke:none;stroke-width:1px;stroke-linecap:butt;stroke-linejoin:miter;stroke-opacity:1"/></g></g><g id="g4356"><g id="g4347"><path style="font-style:normal;font-variant:normal;font-weight:700;font-stretch:normal;font-size:medium;line-height:125%;font-family:Orbitron;-inkscape-font-specification:'Orbitron Bold';text-align:start;letter-spacing:0;word-spacing:0;writing-mode:lr-tb;text-anchor:start;fill:green;fill-opacity:1;stroke:none;stroke-width:1px;stroke-linecap:butt;stroke-linejoin:miter;stroke-opacity:1" id="path4143" d="m 4.3289754,1039.3621 c 0.1846149,0 0.3419956,0.071 0.4716623,0.2121 C 4.933546,1039.7121 5,1039.8793 5,1040.0759 l 0,3.2862 -1,0 0,-2.964 c 0,-0.024 -0.011592,-0.036 -0.034038,-0.036 l -1.931924,0 c -0.022689,0 -0.034038,0.012 -0.034038,0.036 l 0,2.964 -1,0 0,-4 z"/><path style="font-style:normal;font-variant:normal;font-weight:700;font-stretch:normal;font-size:medium;line-height:125%;font-family:Orbitron;-inkscape-font-specification:'Orbitron Bold';text-align:start;letter-spacing:0;word-spacing:0;writing-mode:lr-tb;text-anchor:start;fill:green;fill-opacity:1;stroke:none;stroke-width:1px;stroke-linecap:butt;stroke-linejoin:miter;stroke-opacity:1" id="path4145" d="m 6.6710244,1039.3621 2.6579513,0 c 0.184775,0 0.3419957,0.071 0.471662,0.2121 C 9.933546,1039.7121 10,1039.8793 10,1040.0759 l 0,2.5724 c 0,0.1966 -0.066454,0.3655 -0.1993623,0.5069 -0.1296663,0.1379 -0.286887,0.2069 -0.471662,0.2069 l -2.6579513,0 c -0.184775,0 -0.3436164,-0.069 -0.4765247,-0.2069 C 6.0648334,1043.0138 6,1042.8449 6,1042.6483 l 0,-2.5724 c 0,-0.1966 0.064833,-0.3638 0.1944997,-0.5017 0.1329083,-0.1414 0.2917497,-0.2121 0.4765247,-0.2121 z m 2.2949386,1 -1.931926,0 C 7.011344,1040.3621 7,1040.3741 7,1040.3981 l 0,1.928 c 0,0.024 0.011347,0.036 0.034037,0.036 l 1.931926,0 c 0.02269,0 0.034037,-0.012 0.034037,-0.036 l 0,-1.928 c 0,-0.024 -0.011347,-0.036 -0.034037,-0.036 z"/></g><g id="g4351"><path style="font-style:normal;font-variant:normal;font-weight:700;font-stretch:normal;font-size:medium;line-height:125%;font-family:Orbitron;-inkscape-font-specification:'Orbitron Bold';text-align:start;letter-spacing:0;word-spacing:0;writing-mode:lr-tb;text-anchor:start;fill:#ff0;fill-opacity:1;stroke:none;stroke-width:1px;stroke-linecap:butt;stroke-linejoin:miter;stroke-opacity:1" id="path4147" d="m 3,1047.1121 1,-2.75 1,0 -1.5,4 -1,0 -1.5,-4 1,0 z"/><path style="font-style:normal;font-variant:normal;font-weight:700;font-stretch:normal;font-size:medium;line-height:125%;font-family:Orbitron;-inkscape-font-specification:'Orbitron Bold';text-align:start;letter-spacing:0;word-spacing:0;writing-mode:lr-tb;text-anchor:start;fill:#ff0;fill-opacity:1;stroke:none;stroke-width:1px;stroke-linecap:butt;stroke-linejoin:miter;stroke-opacity:1" id="path4149" d="m 9,1046.8621 0,-2.5 1,0 0,4 -1,0 -2,-2.5 0,2.5 -1,0 0,-4 1,0 z"/><path style="font-style:normal;font-variant:normal;font-weight:700;font-stretch:normal;font-size:medium;line-height:125%;font-family:Orbitron;-inkscape-font-specification:'Orbitron Bold';text-align:start;letter-spacing:0;word-spacing:0;writing-mode:lr-tb;text-anchor:start;fill:#ff0;fill-opacity:1;stroke:none;stroke-width:1px;stroke-linecap:butt;stroke-linejoin:miter;stroke-opacity:1" id="path4151" d="m 15,1045.3621 -2.96596,0 c -0.02269,0 -0.03404,0.012 -0.03404,0.036 l 0,1.928 c 0,0.024 0.01135,0.036 0.03404,0.036 l 2.96596,0 0,1 -3.324113,0 c -0.188017,0 -0.348479,-0.068 -0.481388,-0.2037 C 11.064833,1048.0192 11,1047.8511 11,1047.6542 l 0,-2.5842 c 0,-0.1969 0.06483,-0.3633 0.194499,-0.4991 0.132909,-0.1392 0.293371,-0.2088 0.481388,-0.2088 l 3.324113,0 z"/></g></g></g></g></svg>